# xmcd
#
# Track frame offsets: 
#        150
#        19926
#        31448
#        54093
#        70784
#        87953
#        102746
#        117325
#        141598
#        164907
#        186078
#        205191
#
# Disc length: 3010 seconds
#
# Revision: 1
# Processed by: cddbd v1.5.2PL0 Copyright (c) Steve Scherf et al.
# Submitted via: ExactAudioCopy v0.99pb5
#
DISCID=b10bc00c
DTITLE=Various Artist - det Bästa Från Idol 2009
DYEAR=2009
DGENRE=POP
TTITLE0=Calle Kristiansson - Walking In Memphis
TTITLE1=Reza Ningtyas Lindh - Son Of A Preacher Man
TTITLE2=Mariette Hansson - Dear Mister President
TTITLE3=Erik Grönwall - 18 And Life
TTITLE4=Camilla Håkansson - Human Nature
TTITLE5=Tove Östman Styrke - Hot N Cold
TTITLE6=Karolina Brånsgård - This Is A Mans World
TTITLE7=Erika Selin - About You Now
TTITLE8=Rabih Jaber - You Are Not alone
TTITLE9=Nicklas Hocker - Black Hole Sun
TTITLE10=Eddie Razaz - Man In The Mirror
TTITLE11=Idol Allstars 2009 - I Wish Everyday Could Be Like Christmas
EXTD=
EXTT0=
EXTT1=
EXTT2=
EXTT3=
EXTT4=
EXTT5=
EXTT6=
EXTT7=
EXTT8=
EXTT9=
EXTT10=
EXTT11=
PLAYORDER=
